<?xml version="1.0" encoding="UTF-8" standalone="no"?>
<!-- Created with Inkscape (http://www.inkscape.org/) -->

<svg
   version="1.1"
   id="svg2"
   width="800"
   height="286"
   viewBox="0 0 800 286"
   sodipodi:docname="Instagram_logo.svg"
   inkscape:version="1.1.2 (b8e25be833, 2022-02-05)"
   xmlns:inkscape="http://www.inkscape.org/namespaces/inkscape"
   xmlns:sodipodi="http://sodipodi.sourceforge.net/DTD/sodipodi-0.dtd"
   xmlns="http://www.w3.org/2000/svg"
   xmlns:svg="http://www.w3.org/2000/svg">
  <defs
     id="defs6" />
  <sodipodi:namedview
     id="namedview4"
     pagecolor="#ffffff"
     bordercolor="#999999"
     borderopacity="1"
     inkscape:pageshadow="0"
     inkscape:pageopacity="0"
     inkscape:pagecheckerboard="0"
     showgrid="false"
     inkscape:zoom="1.1950105"
     inkscape:cx="372.80008"
     inkscape:cy="159.41283"
     inkscape:window-width="1920"
     inkscape:window-height="1051"
     inkscape:window-x="-9"
     inkscape:window-y="-9"
     inkscape:window-maximized="1"
     inkscape:current-layer="g8" />
  <g
     inkscape:groupmode="layer"
     inkscape:label="Image"
     id="g8">
    <path
       style="fill:#000000"
       d="m 429.72984,258.45449 c -6.20165,-1.98494 -13.15474,-8.62161 -14.6198,-13.95449 -3.73252,-13.58654 2.16603,-24.23224 25.38996,-45.82376 7.7,-7.15877 14.15805,-13.41366 14.35122,-13.89976 0.19318,-0.4861 0.0515,-2.48156 -0.31486,-4.43437 l -0.66609,-3.55055 -3.46089,4.04327 c -6.39121,7.46669 -18.52638,11.55711 -27.28775,9.19792 -4.58376,-1.23428 -13.55176,-8.66188 -14.65495,-12.13772 -0.86164,-2.7148 -2.03854,-2.34286 -3.46221,1.09417 -3.02475,7.3024 -13.16749,12.83485 -21.07966,11.4981 C 376.81748,189.28652 368,180.4565 368,174.53984 368,173.69293 367.55,173 367,173 c -0.55,0 -1,0.40133 -1,0.89185 0,2.08625 -9.6943,11.4317 -14.3924,13.87448 -3.96418,2.06117 -6.56273,2.66267 -11.6076,2.68688 -10.91783,0.0524 -18.49117,-5.73102 -23.43567,-17.8967 l -2.33998,-5.75739 -3.22716,6.05478 c -5.87074,11.01463 -13.84564,18.06407 -20.49719,18.11856 -11.54153,0.0946 -20.88801,-10.88088 -23.60412,-27.71798 l -1.20051,-7.4419 -4.05154,7.84371 c -5.50919,10.66569 -15.84677,21.12062 -24.14383,24.4179 -8.49795,3.37711 -25.25141,3.39458 -33.78183,0.0352 -3.18,-1.25231 -6.46634,-3.32164 -7.30297,-4.5985 -1.36599,-2.08476 -1.35787,-2.71236 0.0796,-6.1526 2.00341,-4.79484 5.28779,-8.35832 7.70367,-8.35832 1.01739,0 4.11762,1.55999 6.8894,3.46664 8.62004,5.92954 14.01346,5.6952 17.96195,-0.78046 5.19837,-8.52551 0.21055,-19.74677 -14.10499,-31.73241 l -4.79055,-4.01088 -9.71469,16.27856 c -10.9699,18.38187 -18.88611,29.35631 -23.97603,33.23858 -11.18053,8.52781 -20.13691,6.73006 -24.18085,-4.85366 -1.58353,-4.53596 -1.76098,-8.65303 -1.5886,-36.85637 0.11363,-18.59103 -0.18378,-31.75 -0.7176,-31.75 -1.36701,0 -8.31675,9.62765 -12.27149,17 -6.84186,12.75443 -14.15308,34.97132 -17.07441,51.88464 -0.79653,4.61155 -2.05175,8.79397 -2.78939,9.29427 -2.16373,1.46752 -11.58095,0.36656 -13.7641,-1.60916 -1.07465,-0.97255 -2.43163,-3.99576 -3.01549,-6.71823 -1.186687,-5.53331 -1.409841,-43.70172 -0.40454,-69.19181 L 101.31408,96 h 3.69374 c 4.43895,0 9.80408,1.689671 12.35682,3.891604 1.75257,1.511736 1.82566,2.930596 1.21621,23.608396 -0.4338,14.71836 -0.31954,21.47392 0.34521,20.41055 0.5465,-0.8742 2.57493,-5.95786 4.50762,-11.29703 8.70213,-24.03999 18.69268,-36.600166 29.11998,-36.609782 4.8411,-0.0045 13.5966,4.100532 16.43069,7.703502 1.91825,2.43866 1.96882,3.58721 1.37212,31.16237 C 169.69579,165.40124 170.3153,172 173.84238,172 c 3.7717,0 9.61627,-8.02487 22.14099,-30.40062 l 7.07613,-12.64171 -2.52975,-4.31669 c -7.39207,-12.61362 2.95018,-30.531696 17.6732,-30.619018 7.6763,-0.04553 11.44547,4.208483 9.8661,11.135218 -0.87012,3.81612 -5.06813,12.16925 -7.93365,15.78622 l -1.93577,2.4434 9.65019,7.38254 c 17.94356,13.72709 21.60917,18.65135 21.63463,29.0633 l 0.0155,6.3568 4.21705,-4.65507 c 2.31938,-2.56029 5.69438,-7.65372 7.5,-11.31874 l 3.28295,-6.66367 0.59683,-25.52598 C 265.42509,103.98669 265.51103,92.1625 265.28782,91.75 265.0646,91.3375 260.44533,91 255.02277,91 c -5.42256,0 -10.571,-0.273145 -11.44098,-0.606989 -2.02063,-0.775389 -2.08716,-6.247726 -0.13282,-10.92513 L 244.89795,76 h 10.92057 10.92058 l 0.46263,-13.640701 C 267.8085,44.46834 268.66691,43.760458 283.5,48.91899 l 5,1.73886 -0.13602,13.058729 -0.13602,13.058729 3.63602,0.60134 c 1.99981,0.330737 6.38571,0.606293 9.74645,0.612346 3.36073,0.0061 8.19823,0.297172 10.75,0.64693 4.45914,0.611193 4.63957,0.764921 4.63957,3.952947 0,1.824363 -0.49213,4.397124 -1.09362,5.717248 -1.05103,2.30677 -1.59996,2.422745 -14.09821,2.978596 -7.15252,0.318105 -13.2257,0.799482 -13.49595,1.069727 -0.27024,0.270246 -0.96354,13.767468 -1.54066,29.993818 -1.12682,31.68186 -0.50279,42.44123 2.86101,49.32834 3.41366,6.98918 10.28506,5.09478 16.10154,-4.43909 4.86729,-7.97803 6.35821,-13.09033 7.34235,-25.17656 1.56892,-19.26793 6.0516,-31.73767 14.55774,-40.49616 9.26966,-9.544673 21.89922,-10.128811 31.73847,-1.46796 4.56163,4.01531 4.62733,4.03694 4.62733,1.52334 0,-4.873322 6.84692,-5.800103 15.65651,-2.119224 l 3.4608,1.446014 -0.30865,30.27652 c -0.16976,16.65209 0.0704,32.63414 0.53369,35.51567 2.12778,13.23422 10.85347,16.31156 16.75798,5.91012 2.20481,-3.88401 2.36566,-5.26804 2.516,-21.64927 0.18493,-20.14938 1.81607,-28.32137 8.00305,-40.09522 9.40096,-17.890063 26.80563,-22.325928 39.15281,-9.97874 2.73114,2.73113 3.22781,2.93207 3.22781,1.30587 0,-1.05706 0.87361,-2.712537 1.94134,-3.678828 2.38921,-2.162199 10.10839,-1.417328 14.78501,1.426696 l 3.01133,1.831292 -0.51326,32.09447 C 471.94213,151.55749 472.01023,166 472.37576,166 c 1.19683,0 9.75594,-14.00418 13.68994,-22.39913 2.11731,-4.51822 5.03741,-11.89736 6.48913,-16.39809 l 2.63947,-8.18316 -2.52805,-3.00441 c -3.373,-4.00858 -3.99597,-6.33078 -3.17215,-11.82446 0.52229,-3.48284 1.61919,-5.539333 4.48109,-8.401234 C 497.33909,92.425616 498.31991,92 502.70804,92 509.45331,92 512,94.655484 512,101.68892 v 5.06002 l 10.25,-1.85801 c 13.06939,-2.36909 15.89529,-2.35109 19.03836,0.12126 3.87413,3.04738 4.07095,6.39117 1.15158,19.56393 -6.0042,27.09212 -3.56741,51.84788 5.3232,54.07928 4.55623,1.14354 7.53979,-0.75623 10.4522,-6.6554 2.62403,-5.31505 2.67978,-5.76901 1.65801,-13.5 -1.9932,-15.08107 0.53636,-33.2866 6.3042,-45.37203 9.2919,-19.469412 27.1371,-24.980822 40.07245,-12.3762 3.35091,3.26524 3.75,3.42728 3.75,1.52261 0,-3.945579 2.78863,-5.56008 8.33319,-4.824569 5.62278,0.745889 10.63092,2.996339 10.73942,4.825869 0.0399,0.67338 0.15244,16.29932 0.25,34.72432 0.12185,23.01049 0.54257,34.31249 1.34364,36.09482 4.40113,9.79219 11.9686,7.43934 17.99463,-5.59482 l 2.77396,-6 0.82149,-31.5 c 0.45183,-17.325 1.01486,-32.0625 1.2512,-32.75 0.58203,-1.693126 6.03695,-1.574442 12.23507,0.266202 6.46481,1.919841 6.72039,2.910408 5.77634,22.387488 -0.45727,9.4343 -0.36449,14.24266 0.26238,13.59631 0.53342,-0.55 2.43697,-5.5 4.23011,-11 3.76361,-11.54387 8.33148,-22.11644 10.67349,-24.704339 3.31528,-3.663344 13.40891,-1.661687 18.28739,3.626549 2.36006,2.55829 2.50481,3.46089 3.18801,19.87888 0.39364,9.4594 1.02471,19.67391 1.40239,22.69891 l 0.68669,5.5 2.4709,-10.97026 c 2.91886,-12.95909 11.46507,-37.9721 13.88914,-40.650669 C 727.62578,96.756027 729.65149,96 731.64426,96 c 4.3457,0 13.0003,3.317452 15.99558,6.13138 L 750,104.34863 v 28.27646 c 0,16.39134 0.45185,30.38339 1.07502,33.28913 1.45344,6.77715 4.74234,11.49925 8.29572,11.91074 4.1075,0.47565 6.40269,-2.22194 8.72337,-10.25278 C 771.06318,157.29754 771.72084,156 773.95951,156 c 3.75729,0 3.90304,7.61324 0.35417,18.5 -2.39097,7.33471 -5.96978,12.15511 -10.73807,14.4634 -4.81126,2.32909 -7.28355,2.50399 -12.65333,0.89517 C 737.14899,185.73199 732.10211,171.29083 731.92514,135.5 l -0.089,-18 -2.50861,5.5 c -6.3511,13.92445 -10.95987,32.46883 -11.99216,48.25308 -0.72943,11.15331 -1.33768,12.08025 -7.92693,12.08025 -5.33524,0 -9.1593,-2.43919 -11.59803,-7.39786 -2.38515,-4.84973 -4.73889,-21.8474 -5.46082,-39.43547 -0.68857,-16.77573 -1.19439,-18.91198 -3.60634,-15.23089 -6.51151,9.93782 -11.49718,28.96639 -12.76796,48.73089 -1.21059,18.82833 -1.37131,19.60504 -4.21434,20.36685 -6.14734,1.64723 -16.07917,-0.22444 -17.74917,-3.34486 C 653.4553,185.98221 653,182.9888 653,180.36996 v -4.76152 l -2.8591,4.44578 c -3.47182,5.39854 -6.71312,8.46103 -10.456,9.87917 -8.98797,3.40545 -20.8025,-2.86494 -24.38075,-12.93974 l -1.69525,-4.77307 -3.78077,5.27979 c -6.62727,9.25487 -17.59754,14.51109 -27.26149,13.06189 -5.40167,-0.81003 -12.26906,-5.29618 -15.5294,-10.14465 l -2.46276,-3.66238 -1.49884,2.37239 c -5.50396,8.71173 -14.11867,13.02955 -21.90381,10.97852 -8.60896,-2.26807 -14.34437,-7.89961 -18.38572,-18.05273 -1.94328,-4.88212 -2.21249,-7.42703 -2.22714,-21.05341 -0.0119,-11.04666 0.48006,-17.7574 1.71218,-23.35696 0.95087,-4.32133 1.72885,-8.27776 1.72885,-8.79207 0,-0.52406 -3.36062,-0.80672 -7.6453,-0.64303 l -7.6453,0.29206 -3.77219,9.2624 c -6.81182,16.72601 -17.1009,34.43658 -28.02024,48.23116 l -4.34852,5.49355 -0.11517,20.00645 c -0.12449,21.62545 -1.40429,30.35111 -5.88811,40.14507 -2.80377,6.12422 -8.83069,12.4351 -14.77368,15.46971 -5.52303,2.82018 -15.54556,3.43173 -22.06165,1.34615 z m 13.96149,-8.40129 c 7.30961,-3.31859 10.53133,-13.53857 11.79437,-37.41421 0.55504,-10.49209 0.43482,-12.78103 -0.65267,-12.42679 -0.73317,0.23881 -5.28412,4.90127 -10.11322,10.36101 -9.08167,10.26764 -15.00447,20.23328 -16.18782,27.23744 -0.93362,5.52603 1.44824,10.84388 5.68058,12.68274 4.22381,1.83517 4.49471,1.82258 9.47876,-0.44019 z M 352,176.12678 c 5.98944,-4.27158 10.61682,-17.4519 11.64818,-33.17791 1.43827,-21.93054 -4.72965,-35.33328 -15.45907,-33.59213 -10.43456,1.69329 -15.80777,16.73431 -14.98897,41.95804 0.35945,11.0731 0.80626,14.04564 2.78928,18.55655 3.80879,8.66413 9.50994,10.89161 16.01058,6.25545 z m 91.56164,-2.50138 c 6.00214,-6.50629 8.52161,-15.47364 9.16946,-32.63621 0.64632,-17.1219 -0.62631,-24.0844 -5.24677,-28.70486 -6.8396,-6.8396 -15.68293,-2.78468 -21.05486,9.65425 -0.81675,1.89122 -2.14751,7.23766 -2.95724,11.88099 -3.40305,19.51453 -0.45288,37.11749 7.23409,43.16406 3.94204,3.10081 7.83489,2.08387 12.85532,-3.35823 z m 153.51668,3.1008 c 4.60509,-3.10337 7.56869,-7.80038 10.20105,-16.16767 C 609.14691,154.62233 609.5,151.19446 609.5,139 c 0,-16.74555 -1.14423,-21.84423 -5.9896,-26.6896 -8.22266,-8.22266 -18.90899,-0.8336 -22.69085,15.6896 -0.69237,3.025 -1.26418,11.8 -1.27069,19.5 -0.0145,17.099 1.60122,23.66856 6.98301,28.39384 4.21846,3.70385 6.06875,3.84988 10.54645,0.83236 z M 56.010824,206.25 c 0.006,-0.9625 0.654922,-3.87252 1.442153,-6.46672 0.787231,-2.59419 1.881433,-7.99419 2.431561,-12 1.168752,-8.51036 1.789823,-127.450128 0.671224,-128.544486 -1.352665,-1.323352 -8.531081,7.904761 -12.585278,16.17883 -5.663743,11.558936 -7.261001,18.862134 -6.80709,31.124286 0.337749,9.12412 0.706298,10.79242 3.6064,16.325 4.378943,8.35379 4.283083,9.53765 -0.717967,8.86687 -7.686629,-1.031 -16.403907,-9.72331 -19.593424,-19.53731 -6.585802,-20.264217 13.754815,-55.753485 37.350859,-65.167871 4.350777,-1.735879 12.988885,0.08923 17.202324,3.634604 L 82,53.177787 81.982671,108.33889 c -0.0095,30.33861 -0.45204,59.28671 -0.983353,64.3291 -1.617606,15.3518 -7.270254,27.01116 -15.681622,32.34549 -5.365032,3.4024 -9.323521,3.92833 -9.306872,1.23652 z"
       id="path845" />
  </g>
</svg>
